<svg id="Layer_1" data-name="Layer 1" xmlns="http://www.w3.org/2000/svg" viewBox="0 0 97.33 73"><title>polygon1</title><g style="opacity:0.33"><polygon points="21.54 72.63 0.38 51.46 0.38 21.54 21.54 0.38 75.8 0.38 96.96 21.54 96.96 51.46 75.8 72.63 21.54 72.63" style="fill:#f9f6d9"/><path d="M77.31,14.75,98.25,35.69V65.31L77.31,86.25H23.36L2.42,65.31V35.69L23.36,14.75h54m.31-.75H23.05L1.67,35.38V65.62L23.05,87H77.62L99,65.62V35.38L77.62,14Z" transform="translate(-1.67 -14)" style="fill:#ed1c24"/></g><g style="opacity:0.33"><polygon points="22.93 69.27 3.73 50.08 3.73 22.92 22.93 3.73 74.41 3.73 93.61 22.92 93.61 50.08 74.41 69.27 22.93 69.27" style="fill:#f9f6d9"/><path d="M76,18,95,37V64L76,83H24.69l-19-19V37L24.69,18H76m.21-.5H24.49L5.14,36.82V64.18L24.49,83.52H76.18L95.52,64.18V36.82L76.18,17.48Z" transform="translate(-1.67 -14)" style="fill:#ed1c24"/></g></svg>