<?xml version="1.0" encoding="utf-8"?>
<!-- Generator: Adobe Illustrator 23.0.3, SVG Export Plug-In . SVG Version: 6.00 Build 0)  -->
<svg version="1.1" id="Layer_1" xmlns="http://www.w3.org/2000/svg" xmlns:xlink="http://www.w3.org/1999/xlink" x="0px" y="0px"
	 viewBox="0 0 100 100" style="enable-background:new 0 0 100 100;" xml:space="preserve">
<style type="text/css">
	.st0{fill:#F9F6D9;}
	.st1{fill:#FFFFFF;}
	.st2{fill:#F4D398;}
</style>
<g>
	<polygon class="st0" points="23.15,86.75 1.92,65.52 1.92,35.48 23.15,14.25 77.52,14.25 98.75,35.48 98.75,65.52 77.52,86.75 	"/>
	<path class="st1" d="M77.41,14.5L98.5,35.59v29.82L77.41,86.5H23.26L2.17,65.41V35.59L23.25,14.5H77.41 M77.62,14H23.05L1.67,35.38
		v30.24L23.05,87h54.57L99,65.62V35.38L77.62,14L77.62,14z"/>
</g>
<g>
	<path class="st2" d="M76.08,17.73l19.2,19.2v27.15l-19.2,19.2H24.59l-19.2-19.2V36.92l19.2-19.2H76.08 M76.18,17.48H24.49
		L5.14,36.82v27.36l19.35,19.34h51.69l19.34-19.34V36.82L76.18,17.48L76.18,17.48z"/>
</g>
<g>
</g>
<g>
</g>
<g>
</g>
<g>
</g>
<g>
</g>
<g>
</g>
<g>
</g>
<g>
</g>
<g>
</g>
<g>
</g>
<g>
</g>
<g>
</g>
<g>
</g>
<g>
</g>
<g>
</g>
</svg>
